HIERARCHY
ROOT reference
{
  OFFSET 0 0 0
  CHANNELS 6 Xposition Yposition Zposition Zrotation Xrotation Yrotation
  JOINT Hips
  {
    OFFSET 0.400035 90.9797 91.4854
    CHANNELS 6 Xposition Yposition Zposition Zrotation Xrotation Yrotation
    JOINT Spine
    {
      OFFSET 0 7.57377 0
      CHANNELS 6 Xposition Yposition Zposition Zrotation Xrotation Yrotation
      JOINT Spine1
      {
        OFFSET 0 21.6353 0
        CHANNELS 6 Xposition Yposition Zposition Zrotation Xrotation Yrotation
        JOINT Neck
        {
          OFFSET 0 21.5464 1.95876
          CHANNELS 6 Xposition Yposition Zposition Zrotation Xrotation Yrotation
          JOINT Head
          {
            OFFSET 0 12.9308 -1.84726
            CHANNELS 6 Xposition Yposition Zposition Zrotation Xrotation Yrotation
            End Site
            {
              OFFSET 0 23.0907 0
            }
          }
        }
        JOINT LeftShoulder
        {
          OFFSET 3.70822 19.5981 -0.368577
          CHANNELS 6 Xposition Yposition Zposition Zrotation Xrotation Yrotation
          JOINT LeftArm
          {
            OFFSET 11.1726 0 0
            CHANNELS 6 Xposition Yposition Zposition Zrotation Xrotation Yrotation
            JOINT LeftForeArm
            {
              OFFSET 28.6421 0 0
              CHANNELS 6 Xposition Yposition Zposition Zrotation Xrotation Yrotation
              JOINT LeftHand
              {
                OFFSET 23.9346 0 0
                CHANNELS 6 Xposition Yposition Zposition Zrotation Xrotation Yrotation
                End Site
                {
                  OFFSET 13.8545 0 0
                }
              }
            }
          }
        }
        JOINT RightShoulder
        {
          OFFSET -3.63664 19.5981 -0.368577
          CHANNELS 6 Xposition Yposition Zposition Zrotation Xrotation Yrotation
          JOINT RightArm
          {
            OFFSET -11.1726 0 0
            CHANNELS 6 Xposition Yposition Zposition Zrotation Xrotation Yrotation
            JOINT RightForeArm
            {
              OFFSET -28.6421 0 0
              CHANNELS 6 Xposition Yposition Zposition Zrotation Xrotation Yrotation
              JOINT RightHand
              {
                OFFSET -23.9346 0 0
                CHANNELS 6 Xposition Yposition Zposition Zrotation Xrotation Yrotation
                End Site
                {
                  OFFSET -13.8545 0 0
                }
              }
            }
          }
        }
      }
    }
    JOINT LeftUpLeg
    {
      OFFSET 9.2363 0 0
      CHANNELS 6 Xposition Yposition Zposition Zrotation Xrotation Yrotation
      JOINT LeftLeg
      {
        OFFSET 0 -40.7061 0
        CHANNELS 6 Xposition Yposition Zposition Zrotation Xrotation Yrotation
        JOINT LeftFoot
        {
          OFFSET 0 -40.9975 0
          CHANNELS 6 Xposition Yposition Zposition Zrotation Xrotation Yrotation
          JOINT LeftToeBase
          {
            OFFSET 0 -6.00359 13.8545
            CHANNELS 6 Xposition Yposition Zposition Zrotation Xrotation Yrotation
            End Site
            {
              OFFSET 0 0 3.69452
            }
          }
        }
      }
    }
    JOINT RightUpLeg
    {
      OFFSET -9.2363 0 0
      CHANNELS 6 Xposition Yposition Zposition Zrotation Xrotation Yrotation
      JOINT RightLeg
      {
        OFFSET 0 -40.7061 0
        CHANNELS 6 Xposition Yposition Zposition Zrotation Xrotation Yrotation
        JOINT RightFoot
        {
          OFFSET 0 -40.9975 0
          CHANNELS 6 Xposition Yposition Zposition Zrotation Xrotation Yrotation
          JOINT RightToeBase
          {
            OFFSET 0 -6.00359 13.8545
            CHANNELS 6 Xposition Yposition Zposition Zrotation Xrotation Yrotation
            End Site
            {
              OFFSET 0 0 3.69452
            }
          }
        }
      }
    }
  }
}
MOTION
Frames:	5
Frame Time:	0.004
0 0 0 0 0 -0 -26.2924 82.4486 -207.04 -0.650021 1.67621 10.7069 0 7.57377 -2.84217e-014 -1.8085 -8.66909 -1.0285 0 21.6353 -2.84217e-014 1.04721 -3.97971 -0.857568 -7.10543e-015 21.5464 1.95876 -3.70646 19.495 -2.80795 -1.06581e-014 12.9308 -1.84726 3.90149 11.3799 -2.86845 3.70822 19.5981 -0.368577 6.85689 37.6595 -8.85404 11.1726 0 0 -5.07374 -33.7998 -3.52108 28.6421 -2.84217e-014 0 -4.45636 -6.53542 1.26037 23.9346 0 0 5.68175 -6.57382 -1.76673 -3.63664 19.5981 -0.368577 -18.6812 -2.48845 -5.63603 -11.1726 -2.84217e-014 0 24.2619 -4.67717 5.82086 -28.6421 -2.84217e-014 0 0.97691 -3.04067 -3.61906 -23.9346 -2.84217e-014 0 -15.2101 -2.86969 -1.05075 9.2363 -1.42109e-014 2.84217e-014 -2.34531 -2.59043 -3.12066 0 -40.7061 -2.84217e-014 1.14289 5.24246 -3.36331 0 -40.9975 0 1.88361 -5.11195 -5.40075 3.55271e-015 -6.00359 13.8545 4.96962e-017 0 -1.98785e-016 -9.2363 1.42109e-014 0 1.23322 0.316301 5.94334 -1.42109e-014 -40.7061 2.84217e-014 3.24142 3.5943 -0.171079 3.55271e-015 -40.9975 0 -7.1535 -7.93848 -14.1477 -3.55271e-015 -6.00359 13.8545 3.23025e-016 1.19271e-015 3.97569e-016 
0 0 0 0 0 -0 -26.2924 82.4486 -207.04 -0.647287 1.67621 10.7069 -3.55271e-015 7.57377 -2.84217e-014 -1.8085 -8.66909 -1.0285 7.10543e-015 21.6353 -2.84217e-014 1.03425 -3.98534 -0.857574 0 21.5464 1.95876 -3.69537 19.5029 -2.80809 0 12.9308 -1.84726 3.89003 11.3666 -2.86831 3.70822 19.5981 -0.368577 -5.75063 -5.92995 13.9071 11.1726 2.84217e-014 2.84217e-014 -9.2151 -28.6166 -34.6893 28.6421 0 1.42109e-014 -10.4418 12.055 16.8487 23.9346 0 1.42109e-014 9.63604 13.1476 -5.11278 -3.63664 19.5981 -0.368577 -18.682 -2.49693 -5.63606 -11.1726 0 -2.84217e-014 24.2683 -4.66758 5.79993 -28.6421 0 2.84217e-014 0.976058 -3.05413 -3.6191 -23.9346 0 2.84217e-014 -15.2396 -2.88368 -1.04507 9.2363 -1.42109e-014 2.84217e-014 -2.34909 -2.59668 -3.12067 0 -40.7061 -2.84217e-014 1.12982 4.9611 -0.328595 -3.55271e-015 -40.9975 0 1.34985 -4.87285 -8.62647 3.55271e-015 -6.00359 13.8545 1.37935e-033 3.97569e-016 -1.98785e-016 -9.2363 0 0 1.23418 0.306105 5.96119 7.10543e-015 -40.7061 0 3.24653 3.59428 -0.25259 0 -40.9975 2.84217e-014 -7.17753 -7.9405 -14.089 7.10543e-015 -6.00359 13.8545 7.95139e-016 0 -3.97569e-016 
0 0 0 0 0 -0 -26.2924 82.4486 -207.04 -0.640183 1.67621 10.7069 0 7.57377 0 -1.8085 -8.66909 -1.0285 0 21.6353 0 1.02627 -3.96939 -0.857557 3.55271e-015 21.5464 1.95876 -3.72571 19.5099 -2.80821 3.55271e-015 12.9308 -1.84726 3.92973 11.3643 -2.86829 3.70822 19.5981 -0.368577 -5.69841 -5.89897 13.8353 11.1726 2.84217e-014 0 -9.15755 -28.5022 -34.5379 28.6421 -2.84217e-014 0 -10.4217 11.9861 16.7903 23.9346 0 0 9.58084 13.0752 -5.08886 -3.63664 19.5981 -0.368577 -18.6841 -2.51831 -5.63616 -11.1726 0 -2.84217e-014 24.2564 -4.65791 5.78266 -28.6421 0 -2.84217e-014 0.976611 -3.0454 -3.61907 -23.9346 0 0 -15.2249 -2.87813 -1.02029 9.2363 0 2.84217e-014 -2.35896 -2.57712 -3.12062 -3.55271e-015 -40.7061 0 1.1333 4.98372 -0.570629 -3.55271e-015 -40.9975 2.84217e-014 1.46131 -4.83427 -8.42229 -3.55271e-015 -6.00359 13.8545 -2.06902e-033 -1.98785e-016 -5.96354e-016 -9.2363 -1.42109e-014 2.84217e-014 1.23147 0.330465 5.99029 0 -40.7061 -2.84217e-014 3.24521 3.59429 -0.231493 -3.55271e-015 -40.9975 0 -7.24209 -7.93689 -14.1339 7.10543e-015 -6.00359 13.8545 -2.98177e-016 7.95139e-016 -0 
0 0 0 0 0 -0 -26.2924 82.4486 -207.039 -0.637221 1.67618 10.7116 -7.10543e-015 7.57377 2.84217e-014 -1.8085 -8.66909 -1.0285 0 21.6353 -2.84217e-014 1.02339 -3.9757 -0.857564 3.55271e-015 21.5464 1.95876 -3.70699 19.524 -2.80845 -3.55271e-015 12.9308 -1.84726 3.88591 11.3475 -2.86812 3.70822 19.5981 -0.368577 -5.66701 -5.87577 13.7928 11.1726 0 2.84217e-014 -9.10507 -28.4033 -34.4261 28.6421 0 -1.42109e-014 -10.465 11.8289 16.7633 23.9346 0 1.42109e-014 10.054 12.8987 -5.12462 -3.63664 19.5981 -0.368577 -18.6842 -2.52429 -5.62429 -11.1726 0 -2.84217e-014 24.2668 -4.62369 5.76987 -28.6421 2.84217e-014 -2.84217e-014 0.975208 -3.06754 -3.61915 -23.9346 0 2.84217e-014 -15.2477 -2.89957 -1.02651 9.2363 0 0 -2.36276 -2.58532 -3.12064 3.55271e-015 -40.7061 0 1.14006 4.96898 -0.364151 3.55271e-015 -40.9975 0 1.47874 -4.83932 -8.67862 3.55271e-015 -6.00359 13.8545 -9.31803e-018 1.98785e-016 -0 -9.2363 0 0 1.23237 0.321239 6.00115 7.10543e-015 -40.7061 0 3.24865 3.59427 -0.286328 -3.55271e-015 -40.9975 2.84217e-014 -7.10219 -7.96296 -14.1065 0 -6.00359 13.8545 -1.73937e-016 0 3.97569e-016 
0 0 0 0 0 -0 -26.2924 82.4486 -207.036 -0.631137 1.67615 10.7176 0 7.57377 0 -1.8085 -8.66909 -1.0285 -3.55271e-015 21.6353 -2.84217e-014 1.0043 -3.97672 -0.857565 0 21.5464 1.95876 -3.7205 19.5105 -2.80822 7.10543e-015 12.9308 -1.84726 3.92007 11.3675 -2.86832 3.70822 19.5981 -0.368577 -5.65228 -5.87648 13.7854 11.1726 0 2.84217e-014 -9.10996 -28.4019 -34.4118 28.6421 5.68434e-014 1.42109e-014 -10.524 11.7453 16.7555 23.9346 0 1.42109e-014 10.4485 12.8056 -5.1294 -3.63664 19.5981 -0.368577 -18.6835 -2.51814 -5.62307 -11.1726 0 0 24.2764 -4.63784 5.76207 -28.6421 0 0 0.975848 -3.06491 -3.61891 -23.9346 -2.84217e-014 -5.68434e-014 -15.2362 -2.89875 -1.01342 9.2363 1.42109e-014 0 -2.37216 -2.58743 -3.12065 0 -40.7061 -2.84217e-014 1.16643 5.2023 -3.04993 0 -40.9975 0 1.85131 -5.09552 -5.7488 -3.55271e-015 -6.00359 13.8545 -9.62863e-017 1.98785e-016 1.98785e-016 -9.2363 1.42109e-014 0 1.22942 0.318931 5.98061 0 -40.7061 0 3.24535 3.59429 -0.233767 0 -40.9975 2.84217e-014 -7.13748 -7.94891 -14.1419 -7.10543e-015 -6.00359 13.8545 7.45443e-017 0 -0 
